<?xml version="1.0" standalone="no"?> <!DOCTYPE svg PUBLIC "-//W3C//DTD SVG 20010904//EN" "http://www.w3.org/TR/2001/REC-SVG-20010904/DTD/svg10.dtd"> <svg version="1.0" xmlns="http://www.w3.org/2000/svg" width="290.000000pt" height="180.000000pt" viewBox="0 0 290.000000 180.000000" preserveAspectRatio="xMidYMid meet"> <g transform="translate(0.000000,180.000000) scale(0.100000,-0.100000)" fill="#8b52ff" stroke="none"> <path d="M1007 1626 c-26 -7 -56 -21 -68 -32 -18 -16 -176 -223 -556 -729 -85 -112 -100 -148 -90 -212 13 -79 35 -101 283 -290 369 -281 361 -276 460 -265 39 4 55 13 93 51 68 69 254 315 245 324 -8 7 -243 52 -247 46 -1 -2 -29 -37 -60 -76 -76 -96 -92 -97 -203 -9 -29 22 -92 70 -140 106 -189 141 -189 142 -94 270 35 47 66 87 69 90 4 3 22 27 41 53 19 27 42 56 50 66 8 9 64 81 123 161 59 80 114 153 122 163 25 29 76 22 126 -18 24 -19 105 -80 179 -135 74 -56 139 -108 143 -116 15 -27 26 -75 16 -69 -5 4 -9 2 -9 -3 0 -6 -11 -23 -25 -38 -30 -36 -204 -266 -227 -302 -20 -31 -21 -30 77 -102 56 -41 109 -82 145 -113 29 -25 147 -117 294 -231 129 -99 156 -115 197 -121 55 -8 102 0 142 24 16 9 114 129 218 266 104 138 245 324 314 414 82 108 127 175 131 198 10 51 -3 122 -29 160 -12 19 -89 84 -172 146 -82 61 -206 155 -275 207 -69 53 -138 101 -153 108 -38 16 -109 15 -154 -3 -41 -16 -40 -16 -192 -215 l-103 -135 63 -6 c35 -4 99 -7 141 -8 l78 -1 37 50 c51 68 83 69 174 3 35 -27 71 -54 79 -61 8 -7 47 -36 85 -64 123 -91 155 -123 155 -151 0 -12 -22 -50 -48 -83 -26 -34 -134 -177 -240 -318 -129 -171 -202 -258 -217 -262 -31 -8 -46 1 -243 149 -212 160 -218 170 -146 262 13 17 31 39 39 50 8 11 27 37 42 57 96 127 153 208 153 216 0 5 -69 60 -152 123 -151 112 -368 278 -378 289 -14 15 -119 89 -145 103 -46 23 -95 28 -148 13z"/> </g> </svg>